<svg version="1.1" id="Layer_1" xmlns="http://www.w3.org/2000/svg" xmlns:xlink="http://www.w3.org/1999/xlink" x="0px" y="0px"
	 width="100%" viewBox="0 0 500 500" enable-background="new 0 0 500 500" xml:space="preserve">
<path fill="#FFFFFF" opacity="1.000000" stroke="none" 
	d="
M323.000000,501.000000 
	C215.333359,501.000000 108.166718,501.000000 1.000057,501.000000 
	C1.000038,334.333405 1.000038,167.666794 1.000019,1.000147 
	C167.666565,1.000098 334.333130,1.000098 500.999756,1.000049 
	C500.999847,167.666519 500.999847,334.333038 500.999939,500.999786 
	C441.833344,501.000000 382.666656,501.000000 323.000000,501.000000 
M214.251312,379.736176 
	C219.598190,383.533844 224.945053,387.331543 230.956085,391.600983 
	C230.956085,379.788391 230.956085,368.893738 231.117706,357.073547 
	C231.063370,346.714600 231.009033,336.355682 231.113632,325.071106 
	C231.059372,315.713898 231.005127,306.356659 231.114929,296.075623 
	C231.129120,291.643646 231.413940,287.187469 231.021225,282.791840 
	C230.869049,281.088409 229.183868,279.521912 227.840576,277.312469 
	C223.912872,274.534790 219.985168,271.757080 215.713898,268.400238 
	C212.060699,265.811279 208.407516,263.222321 204.299652,260.098297 
	C199.898499,256.983398 195.497330,253.868515 190.749084,250.193558 
	C187.158997,247.648209 183.568893,245.102859 179.417603,242.084198 
	C174.285736,238.366241 169.153885,234.648300 163.687714,230.354218 
	C158.796127,226.887604 153.904541,223.420990 148.666763,219.362366 
	C139.010880,212.318573 129.355011,205.274780 119.229744,197.888580 
	C119.229744,219.179733 119.229744,239.586533 119.070389,260.919098 
	C119.123146,270.945007 119.175911,280.970947 119.071777,291.917572 
	C119.067352,295.371185 118.901733,298.833862 119.095200,302.276337 
	C119.408058,307.843445 121.581543,312.417908 127.140411,315.692383 
	C131.070099,318.473175 134.999786,321.253998 139.269684,324.616852 
	C143.444748,327.594330 147.619797,330.571777 152.217468,334.019226 
	C155.618271,336.455841 159.019073,338.892456 162.875305,341.857941 
	C167.200272,344.930054 171.525238,348.002167 176.204758,351.653625 
	C179.407990,353.911926 182.611221,356.170227 186.218628,358.939636 
	C190.470825,361.980652 194.723038,365.021698 199.324890,368.629059 
	C204.195557,372.136200 209.066238,375.643341 214.251312,379.736176 
M334.569702,172.528961 
	C331.377136,170.414398 328.184540,168.299835 324.361420,165.859421 
	C323.562744,165.348862 322.767303,164.833115 321.964813,164.328613 
	C317.994354,161.832581 314.022034,159.339523 309.750214,156.236038 
	C306.848145,154.119385 303.946045,152.002731 300.694580,149.319473 
	C296.892365,146.834320 293.090149,144.349167 288.899902,141.292709 
	C284.598633,138.567001 280.297394,135.841278 275.378113,132.812012 
	C272.260132,130.514542 269.142151,128.217072 265.681793,125.355141 
	C263.120087,123.677368 260.558411,121.999596 257.359253,119.961693 
	C255.280197,118.548676 253.201141,117.135658 250.736771,115.167511 
	C248.177322,114.058762 245.617874,112.950020 242.432098,111.375977 
	C239.377869,111.698647 235.880997,111.184013 233.360565,112.516426 
	C227.933350,115.385490 223.008423,119.204689 217.216263,122.885452 
	C210.811539,127.327080 204.406799,131.768707 197.356506,136.379959 
	C174.066925,152.314651 150.777344,168.249329 126.919281,184.572968 
	C135.480423,190.649094 143.580429,196.397934 152.039001,202.726120 
	C154.224442,204.228043 156.409866,205.729980 158.987335,207.799377 
	C162.495361,210.267776 166.003387,212.736176 169.916107,215.769882 
	C171.938156,217.182663 173.960205,218.595444 176.361328,220.559937 
	C178.807571,222.264603 181.253815,223.969284 184.108215,226.153351 
	C186.413635,227.752213 188.719055,229.351074 191.384644,231.513794 
	C194.527481,233.698303 197.670319,235.882812 201.167984,238.651077 
	C205.110489,241.434906 209.053009,244.218735 213.339462,247.576981 
	C217.425415,250.448273 221.511368,253.319565 225.991837,256.762726 
	C229.313782,259.213745 232.635712,261.664734 236.311371,264.742920 
	C238.604630,266.230377 240.405975,266.658661 242.668823,264.081879 
	C244.613892,261.866943 247.690857,260.678314 250.152313,258.878601 
	C258.155304,253.027222 266.105560,247.103683 274.741058,241.007462 
	C284.823334,233.579239 294.905609,226.151001 305.607300,218.518723 
	C320.982544,207.285843 336.357788,196.052979 352.260529,184.434723 
	C346.217926,180.463623 340.592072,176.766373 334.569702,172.528961 
M248.002930,313.929199 
	C248.050293,322.285614 248.097641,330.641998 248.002762,339.925598 
	C248.050354,345.949890 248.097946,351.974213 248.003296,358.924622 
	C248.050873,364.282593 248.098465,369.640564 248.003860,375.923279 
	C248.003860,380.938538 248.003860,385.953827 248.003860,392.011200 
	C252.400208,388.671509 255.696045,386.167847 259.594635,383.443939 
	C270.432404,375.395264 281.270172,367.346588 292.768799,359.064301 
	C294.751373,357.613739 296.732666,356.161469 298.716675,354.712921 
	C316.675507,341.600922 334.635864,328.491119 352.593201,315.377075 
	C356.981964,312.171997 359.948578,308.058289 359.967346,302.450256 
	C360.010254,289.634003 359.889496,276.817261 359.970825,263.072327 
	C359.925049,256.048157 359.879242,249.023972 359.968658,241.072067 
	C359.923553,235.048569 359.878479,229.025070 359.969025,222.076111 
	C359.923767,217.050873 359.878510,212.025635 359.967377,206.137421 
	C359.967377,203.626358 359.967377,201.115280 359.967377,197.548065 
	C351.292816,204.101059 343.597504,209.914291 335.242279,215.953232 
	C322.507385,225.340698 309.772522,234.728180 296.388885,244.294266 
	C281.390289,255.257278 266.349030,266.162994 251.454941,277.266205 
	C249.852356,278.460876 248.165726,280.778259 248.117310,282.617004 
	C247.850800,292.737854 248.081741,302.871796 248.002930,313.929199 
z"/>
<path fill="#CB5469" opacity="1.000000" stroke="none" 
	d="
M359.833374,223.001572 
	C359.878479,229.025070 359.923553,235.048569 359.565613,241.579010 
	C357.915588,243.144989 356.387207,244.002579 355.463654,245.293045 
	C339.931549,266.996063 324.492767,288.765839 308.996429,310.494537 
	C293.884735,331.683807 278.674164,352.802979 263.663849,374.063629 
	C261.638031,376.933044 260.526703,380.448090 258.991882,383.664154 
	C255.696045,386.167847 252.400208,388.671509 248.003860,392.011200 
	C248.003860,385.953827 248.003860,380.938538 248.411896,375.417114 
	C249.543991,374.280090 250.420944,373.759796 250.969299,373.001801 
	C260.284088,360.125061 269.616577,347.260468 278.829803,334.311096 
	C303.688171,299.372253 328.465942,264.376068 353.372955,229.472046 
	C355.119324,227.024689 357.661346,225.145142 359.833374,223.001572 
z"/>
<path fill="#BE546D" opacity="1.000000" stroke="none" 
	d="
M248.145538,357.998505 
	C248.097946,351.974213 248.050354,345.949890 248.412018,339.419708 
	C249.721710,338.218201 250.854813,337.688721 251.487900,336.802216 
	C261.867218,322.267365 272.153259,307.665924 282.521057,293.122772 
	C297.689941,271.845001 312.975983,250.650299 328.045624,229.302673 
	C331.048553,225.048737 333.302765,220.266266 335.902222,215.727524 
	C343.597504,209.914291 351.292816,204.101059 359.967377,197.548065 
	C359.967377,201.115280 359.967377,203.626358 359.564880,206.611816 
	C357.827240,208.286514 356.232758,209.298004 355.199066,210.717789 
	C348.467316,219.964005 341.836761,229.284225 335.211121,238.607254 
	C308.707458,275.901031 282.250305,313.227936 255.658203,350.458527 
	C253.623505,353.307220 250.671280,355.500549 248.145538,357.998505 
z"/>
<path fill="#98527A" opacity="1.000000" stroke="none" 
	d="
M310.050354,156.845413 
	C314.022034,159.339523 317.994354,161.832581 321.964813,164.328613 
	C322.767303,164.833115 323.562744,165.348862 324.634003,166.357147 
	C323.881592,168.347900 322.882507,169.859482 321.827698,171.331131 
	C308.792725,189.517044 295.643890,207.622818 282.780518,225.929214 
	C279.425720,230.703568 276.953644,236.098206 274.076111,241.207916 
	C266.105560,247.103683 258.155304,253.027222 250.152313,258.878601 
	C247.690857,260.678314 244.613892,261.866943 242.668823,264.081879 
	C240.405975,266.658661 238.604630,266.230377 236.177673,264.070953 
	C241.700897,255.256271 247.282333,247.059860 253.028885,238.980896 
	C270.102448,214.977463 287.279510,191.047546 304.307556,167.012009 
	C306.545807,163.852676 308.151642,160.245285 310.050354,156.845413 
z"/>
<path fill="#D35566" opacity="1.000000" stroke="none" 
	d="
M259.293274,383.554047 
	C260.526703,380.448090 261.638031,376.933044 263.663849,374.063629 
	C278.674164,352.802979 293.884735,331.683807 308.996429,310.494537 
	C324.492767,288.765839 339.931549,266.996063 355.463654,245.293045 
	C356.387207,244.002579 357.915588,243.144989 359.497986,242.042877 
	C359.879242,249.023972 359.925049,256.048157 359.567017,263.579834 
	C358.099976,265.074127 356.844147,265.920319 356.004669,267.070435 
	C350.448975,274.681702 344.953583,282.337585 339.492767,290.017456 
	C324.257721,311.443420 309.026917,332.872559 293.881622,354.361908 
	C292.910645,355.739594 292.681946,357.640442 292.107941,359.297913 
	C281.270172,367.346588 270.432404,375.395264 259.293274,383.554047 
z"/>
<path fill="#865180" opacity="1.000000" stroke="none" 
	d="
M289.287933,141.864014 
	C293.090149,144.349167 296.892365,146.834320 300.825562,149.961060 
	C300.771301,151.061981 300.667725,151.579239 300.389038,151.972351 
	C281.590668,178.489182 262.822418,205.027573 243.941055,231.485229 
	C237.983887,239.832764 231.720535,247.961807 225.597321,256.190857 
	C221.511368,253.319565 217.425415,250.448273 213.469559,247.142365 
	C214.898514,245.428146 216.419754,244.307144 217.462677,242.844955 
	C232.151154,222.251831 246.765701,201.606003 261.416931,180.986298 
	C270.691132,167.934082 279.996552,154.904022 289.287933,141.864014 
z"/>
<path fill="#7B5084" opacity="1.000000" stroke="none" 
	d="
M289.093933,141.578369 
	C279.996552,154.904022 270.691132,167.934082 261.416931,180.986298 
	C246.765701,201.606003 232.151154,222.251831 217.462677,242.844955 
	C216.419754,244.307144 214.898514,245.428146 213.297577,246.855164 
	C209.053009,244.218735 205.110489,241.434906 201.343323,238.300873 
	C207.120941,230.438522 212.824097,222.999115 218.306091,215.400146 
	C233.000153,195.031677 247.672638,174.646713 262.195312,154.156067 
	C267.042206,147.317368 271.409546,140.138779 275.996094,133.115540 
	C280.297394,135.841278 284.598633,138.567001 289.093933,141.578369 
z"/>
<path fill="#B45471" opacity="1.000000" stroke="none" 
	d="
M335.572266,215.840378 
	C333.302765,220.266266 331.048553,225.048737 328.045624,229.302673 
	C312.975983,250.650299 297.689941,271.845001 282.521057,293.122772 
	C272.153259,307.665924 261.867218,322.267365 251.487900,336.802216 
	C250.854813,337.688721 249.721710,338.218201 248.483124,338.956116 
	C248.097641,330.641998 248.050293,322.285614 248.409119,313.423340 
	C250.226288,311.580750 251.890808,310.427307 253.009750,308.879517 
	C267.133606,289.342316 281.218658,269.776520 295.170868,250.116745 
	C296.323425,248.492737 296.439819,246.133347 297.037628,244.115646 
	C309.772522,234.728180 322.507385,225.340698 335.572266,215.840378 
z"/>
<path fill="#C4546B" opacity="1.000000" stroke="none" 
	d="
M248.074417,358.461548 
	C250.671280,355.500549 253.623505,353.307220 255.658203,350.458527 
	C282.250305,313.227936 308.707458,275.901031 335.211121,238.607254 
	C341.836761,229.284225 348.467316,219.964005 355.199066,210.717789 
	C356.232758,209.298004 357.827240,208.286514 359.497803,207.043304 
	C359.878510,212.025635 359.923767,217.050873 359.901215,222.538849 
	C357.661346,225.145142 355.119324,227.024689 353.372955,229.472046 
	C328.465942,264.376068 303.688171,299.372253 278.829803,334.311096 
	C269.616577,347.260468 260.284088,360.125061 250.969299,373.001801 
	C250.420944,373.759796 249.543991,374.280090 248.483002,374.954773 
	C248.098465,369.640564 248.050873,364.282593 248.074417,358.461548 
z"/>
<path fill="#DC5663" opacity="1.000000" stroke="none" 
	d="
M292.438354,359.181091 
	C292.681946,357.640442 292.910645,355.739594 293.881622,354.361908 
	C309.026917,332.872559 324.257721,311.443420 339.492767,290.017456 
	C344.953583,282.337585 350.448975,274.681702 356.004669,267.070435 
	C356.844147,265.920319 358.099976,265.074127 359.499237,264.044037 
	C359.889496,276.817261 360.010254,289.634003 359.967346,302.450256 
	C359.948578,308.058289 356.981964,312.171997 352.593201,315.377075 
	C334.635864,328.491119 316.675507,341.600922 298.716675,354.712921 
	C296.732666,356.161469 294.751373,357.613739 292.438354,359.181091 
z"/>
<path fill="#584F90" opacity="1.000000" stroke="none" 
	d="
M217.877930,122.635025 
	C223.008423,119.204689 227.933350,115.385490 233.360565,112.516426 
	C235.880997,111.184013 239.377869,111.698647 242.699799,111.974113 
	C241.762390,114.730026 240.747803,117.023346 239.323532,119.025185 
	C218.908905,147.718079 198.467056,176.391739 177.947067,205.009323 
	C175.382904,208.585342 172.335129,211.814636 169.511414,215.204590 
	C166.003387,212.736176 162.495361,210.267776 159.125565,207.354340 
	C159.528519,206.708572 159.863556,206.558075 160.047943,206.299942 
	C177.593613,181.740509 195.171280,157.203629 212.606949,132.566269 
	C214.754227,129.532059 216.139526,125.958595 217.877930,122.635025 
z"/>
<path fill="#715087" opacity="1.000000" stroke="none" 
	d="
M275.687103,132.963776 
	C271.409546,140.138779 267.042206,147.317368 262.195312,154.156067 
	C247.672638,174.646713 233.000153,195.031677 218.306091,215.400146 
	C212.824097,222.999115 207.120941,230.438522 201.165894,238.009003 
	C197.670319,235.882812 194.527481,233.698303 191.402039,230.965485 
	C197.430267,222.349869 203.549728,214.360840 209.430099,206.199524 
	C223.078415,187.257172 236.663345,168.268555 250.165421,149.221725 
	C255.598068,141.558121 260.746399,133.692993 266.024170,125.919586 
	C269.142151,128.217072 272.260132,130.514542 275.687103,132.963776 
z"/>
<path fill="#65508C" opacity="1.000000" stroke="none" 
	d="
M164.022003,230.930344 
	C169.153885,234.648300 174.285736,238.366241 179.315125,242.480469 
	C170.641724,254.631210 162.049789,266.370453 153.505646,278.144348 
	C144.577194,290.447845 135.694717,302.784698 126.792145,315.106964 
	C121.581543,312.417908 119.408058,307.843445 119.095200,302.276337 
	C118.901733,298.833862 119.067352,295.371185 119.503235,291.450989 
	C121.580292,289.742310 123.639191,288.802673 124.805290,287.209564 
	C133.175507,275.774353 141.454330,264.269348 149.577484,252.657303 
	C154.561203,245.533112 159.218262,238.180420 164.022003,230.930344 
z"/>
<path fill="#8F517D" opacity="1.000000" stroke="none" 
	d="
M225.794586,256.476807 
	C231.720535,247.961807 237.983887,239.832764 243.941055,231.485229 
	C262.822418,205.027573 281.590668,178.489182 300.389038,151.972351 
	C300.667725,151.579239 300.771301,151.061981 301.000275,150.244354 
	C303.946045,152.002731 306.848145,154.119385 309.900269,156.540726 
	C308.151642,160.245285 306.545807,163.852676 304.307556,167.012009 
	C287.279510,191.047546 270.102448,214.977463 253.028885,238.980896 
	C247.282333,247.059860 241.700897,255.256271 236.000824,263.757385 
	C232.635712,261.664734 229.313782,259.213745 225.794586,256.476807 
z"/>
<path fill="#8F517D" opacity="1.000000" stroke="none" 
	d="
M216.057465,268.979401 
	C219.985168,271.757080 223.912872,274.534790 227.725159,277.805878 
	C226.562393,280.170105 225.674530,282.153839 224.442688,283.894073 
	C213.718674,299.043823 202.987640,314.189301 192.142273,329.252228 
	C186.838928,336.617920 181.288696,343.805908 175.850204,351.074310 
	C171.525238,348.002167 167.200272,344.930054 162.984421,341.408936 
	C177.248566,321.229828 191.351532,301.461975 205.598251,281.798248 
	C208.828537,277.339752 212.557846,273.242767 216.057465,268.979401 
z"/>
<path fill="#715087" opacity="1.000000" stroke="none" 
	d="
M126.966278,315.399658 
	C135.694717,302.784698 144.577194,290.447845 153.505646,278.144348 
	C162.049789,266.370453 170.641724,254.631210 179.595734,242.717133 
	C183.568893,245.102859 187.158997,247.648209 190.870377,250.844299 
	C190.432022,252.692856 190.041489,254.010971 189.287567,255.070526 
	C176.123016,273.571869 162.962906,292.076813 149.680466,310.493500 
	C146.312744,315.162994 142.524506,319.529236 138.929474,324.034821 
	C134.999786,321.253998 131.070099,318.473175 126.966278,315.399658 
z"/>
<path fill="#7B5084" opacity="1.000000" stroke="none" 
	d="
M139.099579,324.325836 
	C142.524506,319.529236 146.312744,315.162994 149.680466,310.493500 
	C162.962906,292.076813 176.123016,273.571869 189.287567,255.070526 
	C190.041489,254.010971 190.432022,252.692856 191.043915,251.124344 
	C195.497330,253.868515 199.898499,256.983398 204.156250,260.522034 
	C199.563568,266.905579 195.008804,272.789948 190.684662,278.839172 
	C177.673187,297.041412 164.751541,315.307861 151.794861,333.549255 
	C147.619797,330.571777 143.444748,327.594330 139.099579,324.325836 
z"/>
<path fill="#494F95" opacity="1.000000" stroke="none" 
	d="
M151.680450,202.146774 
	C143.580429,196.397934 135.480423,190.649094 126.919281,184.572968 
	C150.777344,168.249329 174.066925,152.314651 197.670837,136.654724 
	C197.238342,138.559021 196.722198,140.350479 195.709305,141.793198 
	C184.597977,157.619965 173.476303,173.440536 162.199219,189.149216 
	C158.954285,193.669327 155.200790,197.824356 151.680450,202.146774 
z"/>
<path fill="#694F8A" opacity="1.000000" stroke="none" 
	d="
M265.852966,125.637360 
	C260.746399,133.692993 255.598068,141.558121 250.165421,149.221725 
	C236.663345,168.268555 223.078415,187.257172 209.430099,206.199524 
	C203.549728,214.360840 197.430267,222.349869 191.221954,230.683563 
	C188.719055,229.351074 186.413635,227.752213 184.057129,225.550400 
	C189.186478,217.653351 194.342041,210.341446 199.552246,203.068680 
	C212.383560,185.157913 225.307999,167.313385 238.058762,149.345581 
	C244.850769,139.774612 251.359894,130.002914 257.996704,120.321823 
	C260.558411,121.999596 263.120087,123.677368 265.852966,125.637360 
z"/>
<path fill="#865180" opacity="1.000000" stroke="none" 
	d="
M152.006165,333.784241 
	C164.751541,315.307861 177.673187,297.041412 190.684662,278.839172 
	C195.008804,272.789948 199.563568,266.905579 204.383591,260.789581 
	C208.407516,263.222321 212.060699,265.811279 215.885681,268.689819 
	C212.557846,273.242767 208.828537,277.339752 205.598251,281.798248 
	C191.351532,301.461975 177.248566,321.229828 162.756714,341.144531 
	C159.019073,338.892456 155.618271,336.455841 152.006165,333.784241 
z"/>
<path fill="#584F90" opacity="1.000000" stroke="none" 
	d="
M163.854858,230.642273 
	C159.218262,238.180420 154.561203,245.533112 149.577484,252.657303 
	C141.454330,264.269348 133.175507,275.774353 124.805290,287.209564 
	C123.639191,288.802673 121.580292,289.742310 119.581680,290.990662 
	C119.175911,280.970947 119.123146,270.945007 119.504143,260.450256 
	C121.310005,258.950226 123.015236,258.167419 123.999657,256.847137 
	C129.991394,248.811249 135.944641,240.739899 141.647430,232.498199 
	C144.398804,228.521896 146.575836,224.148148 149.012939,219.954376 
	C153.904541,223.420990 158.796127,226.887604 163.854858,230.642273 
z"/>
<path fill="#A25277" opacity="1.000000" stroke="none" 
	d="
M230.950867,296.999451 
	C231.005127,306.356659 231.059372,315.713898 230.690643,325.571655 
	C229.005997,327.104218 227.445114,327.921936 226.528946,329.201355 
	C217.283890,342.111816 208.144379,355.097870 198.975220,368.062714 
	C194.723038,365.021698 190.470825,361.980652 186.157913,358.333374 
	C186.485596,356.992432 186.796310,356.202454 187.273788,355.531097 
	C199.072556,338.941528 210.819901,322.314484 222.761551,305.828217 
	C225.099030,302.601135 228.201309,299.928040 230.950867,296.999451 
z"/>
<path fill="#65508C" opacity="1.000000" stroke="none" 
	d="
M257.677979,120.141754 
	C251.359894,130.002914 244.850769,139.774612 238.058762,149.345581 
	C225.307999,167.313385 212.383560,185.157913 199.552246,203.068680 
	C194.342041,210.341446 189.186478,217.653351 183.853058,225.310699 
	C181.253815,223.969284 178.807571,222.264603 176.475861,220.136139 
	C180.422119,214.750778 184.400986,209.895035 188.059402,204.808777 
	C201.871368,185.606033 215.623001,166.359451 229.308441,147.066299 
	C236.672729,136.684448 243.856735,126.174690 251.122086,115.722649 
	C253.201141,117.135658 255.280197,118.548676 257.677979,120.141754 
z"/>
<path fill="#5E4F8E" opacity="1.000000" stroke="none" 
	d="
M250.929428,115.445084 
	C243.856735,126.174690 236.672729,136.684448 229.308441,147.066299 
	C215.623001,166.359451 201.871368,185.606033 188.059402,204.808777 
	C184.400986,209.895035 180.422119,214.750778 176.286316,219.860291 
	C173.960205,218.595444 171.938156,217.182663 169.713776,215.487244 
	C172.335129,211.814636 175.382904,208.585342 177.947067,205.009323 
	C198.467056,176.391739 218.908905,147.718079 239.323532,119.025185 
	C240.747803,117.023346 241.762390,114.730026 243.012955,112.206764 
	C245.617874,112.950020 248.177322,114.058762 250.929428,115.445084 
z"/>
<path fill="#494F95" opacity="1.000000" stroke="none" 
	d="
M148.839844,219.658371 
	C146.575836,224.148148 144.398804,228.521896 141.647430,232.498199 
	C135.944641,240.739899 129.991394,248.811249 123.999657,256.847137 
	C123.015236,258.167419 121.310005,258.950226 119.583817,259.987366 
	C119.229744,239.586533 119.229744,219.179733 119.229744,197.888580 
	C129.355011,205.274780 139.010880,212.318573 148.839844,219.658371 
z"/>
<path fill="#98527A" opacity="1.000000" stroke="none" 
	d="
M231.032898,296.537537 
	C228.201309,299.928040 225.099030,302.601135 222.761551,305.828217 
	C210.819901,322.314484 199.072556,338.941528 187.273788,355.531097 
	C186.796310,356.202454 186.485596,356.992432 185.955826,358.077820 
	C182.611221,356.170227 179.407990,353.911926 176.027481,351.363953 
	C181.288696,343.805908 186.838928,336.617920 192.142273,329.252228 
	C202.987640,314.189301 213.718674,299.043823 224.442688,283.894073 
	C225.674530,282.153839 226.562393,280.170105 227.903397,278.096191 
	C229.183868,279.521912 230.869049,281.088409 231.021225,282.791840 
	C231.413940,287.187469 231.129120,291.643646 231.032898,296.537537 
z"/>
<path fill="#AC5575" opacity="1.000000" stroke="none" 
	d="
M296.713257,244.204956 
	C296.439819,246.133347 296.323425,248.492737 295.170868,250.116745 
	C281.218658,269.776520 267.133606,289.342316 253.009750,308.879517 
	C251.890808,310.427307 250.226288,311.580750 248.478668,312.959351 
	C248.081741,302.871796 247.850800,292.737854 248.117310,282.617004 
	C248.165726,280.778259 249.852356,278.460876 251.454941,277.266205 
	C266.349030,266.162994 281.390289,255.257278 296.713257,244.204956 
z"/>
<path fill="#A25277" opacity="1.000000" stroke="none" 
	d="
M274.408569,241.107697 
	C276.953644,236.098206 279.425720,230.703568 282.780518,225.929214 
	C295.643890,207.622818 308.792725,189.517044 321.827698,171.331131 
	C322.882507,169.859482 323.881592,168.347900 324.949280,166.520081 
	C328.184540,168.299835 331.377136,170.414398 334.631561,173.107666 
	C326.628784,185.124573 318.464233,196.494400 310.562866,208.044266 
	C308.311646,211.334991 306.825134,215.148834 304.987915,218.722778 
	C294.905609,226.151001 284.823334,233.579239 274.408569,241.107697 
z"/>
<path fill="#4F4F93" opacity="1.000000" stroke="none" 
	d="
M151.859726,202.436447 
	C155.200790,197.824356 158.954285,193.669327 162.199219,189.149216 
	C173.476303,173.440536 184.597977,157.619965 195.709305,141.793198 
	C196.722198,140.350479 197.238342,138.559021 197.993622,136.569916 
	C204.406799,131.768707 210.811539,127.327080 217.547089,122.760239 
	C216.139526,125.958595 214.754227,129.532059 212.606949,132.566269 
	C195.171280,157.203629 177.593613,181.740509 160.047943,206.299942 
	C159.863556,206.558075 159.528519,206.708572 158.929550,207.070602 
	C156.409866,205.729980 154.224442,204.228043 151.859726,202.436447 
z"/>
<path fill="#AC5575" opacity="1.000000" stroke="none" 
	d="
M199.150055,368.345886 
	C208.144379,355.097870 217.283890,342.111816 226.528946,329.201355 
	C227.445114,327.921936 229.005997,327.104218 230.611176,326.034485 
	C231.009033,336.355682 231.063370,346.714600 230.692749,357.573303 
	C229.019424,359.084290 227.482864,359.886444 226.571777,361.142365 
	C222.266434,367.077087 218.132172,373.135895 213.936920,379.150482 
	C209.066238,375.643341 204.195557,372.136200 199.150055,368.345886 
z"/>
<path fill="#AC5575" opacity="1.000000" stroke="none" 
	d="
M305.297607,218.620758 
	C306.825134,215.148834 308.311646,211.334991 310.562866,208.044266 
	C318.464233,196.494400 326.628784,185.124573 334.829803,173.377762 
	C340.592072,176.766373 346.217926,180.463623 352.260529,184.434723 
	C336.357788,196.052979 320.982544,207.285843 305.297607,218.620758 
z"/>
<path fill="#BE546D" opacity="1.000000" stroke="none" 
	d="
M214.094116,379.443329 
	C218.132172,373.135895 222.266434,367.077087 226.571777,361.142365 
	C227.482864,359.886444 229.019424,359.084290 230.611938,358.036072 
	C230.956085,368.893738 230.956085,379.788391 230.956085,391.600983 
	C224.945053,387.331543 219.598190,383.533844 214.094116,379.443329 
z"/>
</svg>